<?xml version="1.0" encoding="UTF-8" standalone="no"?>
<!DOCTYPE svg PUBLIC "-//W3C//DTD SVG 1.1//EN"
 "http://www.w3.org/Graphics/SVG/1.1/DTD/svg11.dtd">
<!-- Generated by graphviz version 14.1.0 (20251206.1807)
 -->
<!-- Title: Relationship Visualizer Pages: 1 -->
<svg width="690pt" height="699pt"
 viewBox="0.00 0.00 690.00 699.00" xmlns="http://www.w3.org/2000/svg" xmlns:xlink="http://www.w3.org/1999/xlink">
<g id="graph0" class="graph" transform="scale(1 1) rotate(0) translate(4 695.25)">
<title>Relationship Visualizer</title>
<polygon fill="white" stroke="none" points="-4,4 -4,-695.25 686.15,-695.25 686.15,4 -4,4"/>
<g id="clust1" class="cluster">
<title>cluster_1</title>
<g id="a_clust1"><a xlink:title="Component Interface Overview">
<polygon fill="none" stroke="black" stroke-width="2" points="0,0 0,-691.25 682.15,-691.25 682.15,0 0,0"/>
<text xml:space="preserve" text-anchor="middle" x="341.08" y="-672.05" font-family="Arial Bold" font-size="16.00">Component Interface Overview</text>
</a>
</g>
</g>
<g id="clust2" class="cluster">
<title>cluster_2</title>
<g id="a_clust2"><a xlink:title="Customer">
<polygon fill="#fee0d2" stroke="black" points="250,-554 250,-658.5 433,-658.5 433,-554 250,-554"/>
<text xml:space="preserve" text-anchor="middle" x="341.5" y="-643.1" font-family="Arial Bold" font-size="12.00">Customer</text>
</a>
</g>
</g>
<g id="clust3" class="cluster">
<title>cluster_3</title>
<g id="a_clust3"><a xlink:title="Customer">
<polygon fill="#deebf7" stroke="black" points="256,-560 256,-630.25 427,-630.25 427,-560 256,-560"/>
<text xml:space="preserve" text-anchor="middle" x="341.5" y="-614.85" font-family="Arial Bold" font-size="12.00">Customer</text>
</a>
</g>
</g>
<g id="clust4" class="cluster">
<title>cluster_4</title>
<g id="a_clust4"><a xlink:title="DMZ">
<polygon fill="#fee0d2" stroke="black" points="220,-438 220,-542.5 462.27,-542.5 462.27,-438 220,-438"/>
<text xml:space="preserve" text-anchor="middle" x="341.13" y="-527.1" font-family="Arial Bold" font-size="12.00">DMZ</text>
</a>
</g>
</g>
<g id="clust5" class="cluster">
<title>cluster_5</title>
<g id="a_clust5"><a xlink:title="Infra">
<polygon fill="#deebf7" stroke="black" points="226,-444 226,-514.25 456.27,-514.25 456.27,-444 226,-444"/>
<text xml:space="preserve" text-anchor="middle" x="341.13" y="-498.85" font-family="Arial Bold" font-size="12.00">Infra</text>
</a>
</g>
</g>
<g id="clust6" class="cluster">
<title>cluster_6</title>
<g id="a_clust6"><a xlink:title="User Interaction">
<polygon fill="#fee0d2" stroke="black" points="6,-239 6,-425.5 676.15,-425.5 676.15,-239 6,-239"/>
<text xml:space="preserve" text-anchor="middle" x="341.08" y="-410.1" font-family="Arial Bold" font-size="12.00">User Interaction</text>
</a>
</g>
</g>
<g id="clust7" class="cluster">
<title>cluster_7</title>
<g id="a_clust7"><a xlink:title="comms">
<polygon fill="#deebf7" stroke="black" points="12,-327 12,-397.25 369.95,-397.25 369.95,-327 12,-327"/>
<text xml:space="preserve" text-anchor="middle" x="190.98" y="-381.85" font-family="Arial Bold" font-size="12.00">comms</text>
</a>
</g>
</g>
<g id="clust8" class="cluster">
<title>cluster_8</title>
<g id="a_clust8"><a xlink:title="ordering">
<polygon fill="#e5f5e0" stroke="black" points="382,-327 382,-397.25 524.34,-397.25 524.34,-327 382,-327"/>
<text xml:space="preserve" text-anchor="middle" x="453.17" y="-381.85" font-family="Arial Bold" font-size="12.00">ordering</text>
</a>
</g>
</g>
<g id="clust9" class="cluster">
<title>cluster_9</title>
<g id="a_clust9"><a xlink:title="Support">
<polygon fill="#f0f0f0" stroke="black" points="536,-327 536,-397.25 670.15,-397.25 670.15,-327 536,-327"/>
<text xml:space="preserve" text-anchor="middle" x="603.08" y="-381.85" font-family="Arial Bold" font-size="12.00">Support</text>
</a>
</g>
</g>
<g id="clust10" class="cluster">
<title>cluster_10</title>
<g id="a_clust10"><a xlink:title="UI">
<polygon fill="#fee6ce" stroke="black" points="73,-245 73,-315.25 369.62,-315.25 369.62,-245 73,-245"/>
<text xml:space="preserve" text-anchor="middle" x="221.31" y="-299.85" font-family="Arial Bold" font-size="12.00">UI</text>
</a>
</g>
</g>
<g id="clust11" class="cluster">
<title>cluster_11</title>
<g id="a_clust11"><a xlink:title="workflow">
<polygon fill="#fee0d2" stroke="black" points="156,-123 156,-227.5 525.85,-227.5 525.85,-123 156,-123"/>
<text xml:space="preserve" text-anchor="middle" x="340.93" y="-212.1" font-family="Arial Bold" font-size="12.00">workflow</text>
</a>
</g>
</g>
<g id="clust12" class="cluster">
<title>cluster_12</title>
<g id="a_clust12"><a xlink:title="ordering">
<polygon fill="#deebf7" stroke="black" points="162,-129 162,-199.25 519.85,-199.25 519.85,-129 162,-129"/>
<text xml:space="preserve" text-anchor="middle" x="340.93" y="-183.85" font-family="Arial Bold" font-size="12.00">ordering</text>
</a>
</g>
</g>
<g id="clust13" class="cluster">
<title>cluster_13</title>
<g id="a_clust13"><a xlink:title="Systems of Record">
<polygon fill="#fee0d2" stroke="black" points="104,-6 104,-110.5 578.4,-110.5 578.4,-6 104,-6"/>
<text xml:space="preserve" text-anchor="middle" x="341.2" y="-95.1" font-family="Arial Bold" font-size="12.00">Systems of Record</text>
</a>
</g>
</g>
<g id="clust14" class="cluster">
<title>cluster_14</title>
<g id="a_clust14"><a xlink:title="CRM">
<polygon fill="#deebf7" stroke="black" points="110,-12 110,-82.25 329.11,-82.25 329.11,-12 110,-12"/>
<text xml:space="preserve" text-anchor="middle" x="219.56" y="-66.85" font-family="Arial Bold" font-size="12.00">CRM</text>
</a>
</g>
</g>
<g id="clust15" class="cluster">
<title>cluster_15</title>
<g id="a_clust15"><a xlink:title="ordering">
<polygon fill="#e5f5e0" stroke="black" points="341,-12 341,-82.25 572.4,-82.25 572.4,-12 341,-12"/>
<text xml:space="preserve" text-anchor="middle" x="456.7" y="-66.85" font-family="Arial Bold" font-size="12.00">ordering</text>
</a>
</g>
</g>
<!-- Customer browser -->
<g id="node1" class="node">
<title>Customer browser</title>
<g id="a_node1"><a xlink:title="Customer browser">
<ellipse fill="none" stroke="black" cx="341.5" cy="-584" rx="79.5" ry="18"/>
<text xml:space="preserve" text-anchor="middle" x="341.5" y="-578.95" font-family="Times New Roman,serif" font-size="14.00">Customer browser</text>
</a>
</g>
</g>
<!-- firewall -->
<g id="node2" class="node">
<title>firewall</title>
<g id="a_node2"><a xlink:title="firewall">
<ellipse fill="none" stroke="black" cx="271.58" cy="-468" rx="39.58" ry="18"/>
<text xml:space="preserve" text-anchor="middle" x="271.58" y="-462.95" font-family="Times New Roman,serif" font-size="14.00">firewall</text>
</a>
</g>
</g>
<!-- Customer browser&#45;&gt;firewall -->
<g id="edge11" class="edge">
<title>Customer browser&#45;&gt;firewall</title>
<g id="a_edge11"><a xlink:title="infra: http traffic">
<path fill="none" stroke="black" d="M286.58,-570.69C286.58,-570.69 286.58,-496.4 286.58,-496.4"/>
<polygon fill="black" stroke="black" points="290.08,-496.4 286.58,-486.4 283.08,-496.4 290.08,-496.4"/>
</a>
</g>
</g>
<!-- Load balancer -->
<g id="node3" class="node">
<title>Load balancer</title>
<g id="a_node3"><a xlink:title="Load balancer">
<ellipse fill="none" stroke="black" cx="386.63" cy="-468" rx="63.63" ry="18"/>
<text xml:space="preserve" text-anchor="middle" x="386.63" y="-462.95" font-family="Times New Roman,serif" font-size="14.00">Load balancer</text>
</a>
</g>
</g>
<!-- firewall&#45;&gt;Load balancer -->
<g id="edge12" class="edge">
<title>firewall&#45;&gt;Load balancer</title>
<g id="a_edge12"><a xlink:title="infra: http traffic">
<path fill="none" stroke="black" d="M311.5,-468C311.5,-468 312.61,-468 312.61,-468"/>
<polygon fill="black" stroke="black" points="311.13,-471.5 321.13,-468 311.13,-464.5 311.13,-471.5"/>
</a>
</g>
</g>
<!-- Customer portal -->
<g id="node9" class="node">
<title>Customer portal</title>
<g id="a_node9"><a xlink:title="Customer portal">
<ellipse fill="none" stroke="black" cx="292.31" cy="-269" rx="71.31" ry="18"/>
<text xml:space="preserve" text-anchor="middle" x="292.31" y="-263.95" font-family="Times New Roman,serif" font-size="14.00">Customer portal</text>
</a>
</g>
</g>
<!-- Load balancer&#45;&gt;Customer portal -->
<g id="edge13" class="edge">
<title>Load balancer&#45;&gt;Customer portal</title>
<g id="a_edge13"><a xlink:title="infra: http traffic">
<path fill="none" stroke="black" d="M375.98,-449.78C375.98,-402.23 375.98,-278 375.98,-278 375.98,-278 366.38,-278 366.38,-278"/>
<polygon fill="black" stroke="black" points="366.38,-274.5 356.38,-278 366.38,-281.5 366.38,-274.5"/>
</a>
</g>
</g>
<!-- software downloader -->
<g id="node4" class="node">
<title>software downloader</title>
<g id="a_node4"><a xlink:title="software downloader">
<ellipse fill="none" stroke="black" cx="106.71" cy="-351" rx="88.71" ry="18"/>
<text xml:space="preserve" text-anchor="middle" x="106.71" y="-345.95" font-family="Times New Roman,serif" font-size="14.00">software downloader</text>
</a>
</g>
</g>
<!-- notification center -->
<g id="node5" class="node">
<title>notification center</title>
<g id="a_node5"><a xlink:title="notification center">
<ellipse fill="none" stroke="black" cx="285.48" cy="-351" rx="78.48" ry="18"/>
<text xml:space="preserve" text-anchor="middle" x="285.48" y="-345.95" font-family="Times New Roman,serif" font-size="14.00">notification center</text>
</a>
</g>
</g>
<!-- order approval -->
<g id="node6" class="node">
<title>order approval</title>
<g id="a_node6"><a xlink:title="order approval">
<ellipse fill="none" stroke="black" cx="453.17" cy="-351" rx="65.17" ry="18"/>
<text xml:space="preserve" text-anchor="middle" x="453.17" y="-345.95" font-family="Times New Roman,serif" font-size="14.00">order approval</text>
</a>
</g>
</g>
<!-- order workflow -->
<g id="node10" class="node">
<title>order workflow</title>
<g id="a_node10"><a xlink:title="order workflow">
<ellipse fill="none" stroke="black" cx="236.75" cy="-153" rx="68.75" ry="18"/>
<text xml:space="preserve" text-anchor="middle" x="236.75" y="-147.95" font-family="Times New Roman,serif" font-size="14.00">order workflow</text>
</a>
</g>
</g>
<!-- order approval&#45;&gt;order workflow -->
<g id="edge3" class="edge">
<title>order approval&#45;&gt;order workflow</title>
<g id="a_edge3"><a xlink:title="REST API: approve order">
<path fill="none" stroke="black" d="M419.46,-335.31C419.46,-302.78 419.46,-231 419.46,-231 419.46,-231 284.38,-231 284.38,-231 284.38,-231 284.38,-177.75 284.38,-177.75"/>
<polygon fill="black" stroke="black" points="287.88,-177.75 284.38,-167.75 280.88,-177.75 287.88,-177.75"/>
</a>
</g>
</g>
<!-- Salesforce CRM module -->
<g id="node12" class="node">
<title>Salesforce CRM module</title>
<g id="a_node12"><a xlink:title="Salesforce CRM module">
<ellipse fill="none" stroke="black" cx="219.56" cy="-36" rx="103.56" ry="18"/>
<text xml:space="preserve" text-anchor="middle" x="219.56" y="-30.95" font-family="Times New Roman,serif" font-size="14.00">Salesforce CRM module</text>
</a>
</g>
</g>
<!-- order approval&#45;&gt;Salesforce CRM module -->
<g id="edge10" class="edge">
<title>order approval&#45;&gt;Salesforce CRM module</title>
<g id="a_edge10"><a xlink:title="REST API: Get customer relation overview">
<path fill="none" stroke="black" d="M482.39,-334.48C482.39,-293.6 482.39,-191 482.39,-191 482.39,-191 311.75,-191 311.75,-191 311.75,-191 311.75,-55.85 311.75,-55.85"/>
<polygon fill="black" stroke="black" points="315.25,-55.85 311.75,-45.85 308.25,-55.85 315.25,-55.85"/>
</a>
</g>
</g>
<!-- Case Handler -->
<g id="node7" class="node">
<title>Case Handler</title>
<g id="a_node7"><a xlink:title="Case Handler">
<ellipse fill="none" stroke="black" cx="603.08" cy="-351" rx="61.08" ry="18"/>
<text xml:space="preserve" text-anchor="middle" x="603.08" y="-345.95" font-family="Times New Roman,serif" font-size="14.00">Case Handler</text>
</a>
</g>
</g>
<!-- Case Handler&#45;&gt;notification center -->
<g id="edge8" class="edge">
<title>Case Handler&#45;&gt;notification center</title>
<g id="a_edge8"><a xlink:title="SOAP: sent case update event">
<path fill="none" stroke="black" d="M550.13,-341.9C550.13,-329.82 550.13,-310 550.13,-310 550.13,-310 316.08,-310 316.08,-310 316.08,-310 316.08,-322.81 316.08,-322.81"/>
<polygon fill="black" stroke="black" points="312.58,-322.81 316.08,-332.81 319.58,-322.81 312.58,-322.81"/>
</a>
</g>
</g>
<!-- Public website -->
<g id="node8" class="node">
<title>Public website</title>
<g id="a_node8"><a xlink:title="Public website">
<ellipse fill="none" stroke="black" cx="144.17" cy="-269" rx="65.17" ry="18"/>
<text xml:space="preserve" text-anchor="middle" x="144.17" y="-263.95" font-family="Times New Roman,serif" font-size="14.00">Public website</text>
</a>
</g>
</g>
<!-- Customer portal&#45;&gt;notification center -->
<g id="edge9" class="edge">
<title>Customer portal&#45;&gt;notification center</title>
<g id="a_edge9"><a xlink:title="SOAP: get notifications">
<path fill="none" stroke="black" d="M268.54,-286.39C268.54,-286.39 268.54,-321.55 268.54,-321.55"/>
<polygon fill="black" stroke="black" points="265.04,-321.55 268.54,-331.55 272.04,-321.55 265.04,-321.55"/>
</a>
</g>
</g>
<!-- Customer portal&#45;&gt;Case Handler -->
<g id="edge7" class="edge">
<title>Customer portal&#45;&gt;Case Handler</title>
<g id="a_edge7"><a xlink:title="REST API: get support case overview">
<path fill="none" stroke="black" d="M363.93,-269C442.7,-269 558.26,-269 558.26,-269 558.26,-269 558.26,-327.03 558.26,-327.03"/>
<polygon fill="black" stroke="black" points="554.76,-327.03 558.26,-337.03 561.76,-327.03 554.76,-327.03"/>
</a>
</g>
</g>
<!-- Customer portal&#45;&gt;order workflow -->
<g id="edge1" class="edge">
<title>Customer portal&#45;&gt;order workflow</title>
<g id="a_edge1"><a xlink:title="REST API: trigger ordering process">
<path fill="none" stroke="black" d="M242.13,-256.14C242.13,-256.14 242.13,-182.76 242.13,-182.76"/>
<polygon fill="black" stroke="black" points="245.63,-182.76 242.13,-172.76 238.63,-182.76 245.63,-182.76"/>
</a>
</g>
</g>
<!-- order management system -->
<g id="node13" class="node">
<title>order management system</title>
<g id="a_node13"><a xlink:title="order management system">
<ellipse fill="none" stroke="black" cx="456.7" cy="-36" rx="109.7" ry="18"/>
<text xml:space="preserve" text-anchor="middle" x="456.7" y="-30.95" font-family="Times New Roman,serif" font-size="14.00">order management system</text>
</a>
</g>
</g>
<!-- Customer portal&#45;&gt;order management system -->
<g id="edge5" class="edge">
<title>Customer portal&#45;&gt;order management system</title>
<g id="a_edge5"><a xlink:title="REST API: get order overview">
<path fill="none" stroke="black" d="M354.81,-260C425.28,-260 530.17,-260 530.17,-260 530.17,-260 530.17,-61.19 530.17,-61.19"/>
<polygon fill="black" stroke="black" points="533.67,-61.19 530.17,-51.19 526.67,-61.19 533.67,-61.19"/>
</a>
</g>
</g>
<!-- order workflow&#45;&gt;order approval -->
<g id="edge2" class="edge">
<title>order workflow&#45;&gt;order approval</title>
<g id="a_edge2"><a xlink:title="REST API: request approval of order">
<path fill="none" stroke="black" d="M263.25,-170.09C263.25,-187.2 263.25,-211 263.25,-211 263.25,-211 450.93,-211 450.93,-211 450.93,-211 450.93,-321.18 450.93,-321.18"/>
<polygon fill="black" stroke="black" points="447.43,-321.18 450.93,-331.18 454.43,-321.18 447.43,-321.18"/>
</a>
</g>
</g>
<!-- order activation system -->
<g id="node11" class="node">
<title>order activation system</title>
<g id="a_node11"><a xlink:title="order activation system">
<ellipse fill="none" stroke="black" cx="415.93" cy="-153" rx="97.93" ry="18"/>
<text xml:space="preserve" text-anchor="middle" x="415.93" y="-147.95" font-family="Times New Roman,serif" font-size="14.00">order activation system</text>
</a>
</g>
</g>
<!-- order workflow&#45;&gt;order activation system -->
<g id="edge4" class="edge">
<title>order workflow&#45;&gt;order activation system</title>
<g id="a_edge4"><a xlink:title="REST API: initiate activation of the customer">
<path fill="none" stroke="black" d="M305.77,-153C305.77,-153 306.97,-153 306.97,-153"/>
<polygon fill="black" stroke="black" points="306.22,-156.5 316.22,-153 306.22,-149.5 306.22,-156.5"/>
</a>
</g>
</g>
<!-- order workflow&#45;&gt;order management system -->
<g id="edge6" class="edge">
<title>order workflow&#45;&gt;order management system</title>
<g id="a_edge6"><a xlink:title="REST API: update order">
<path fill="none" stroke="black" d="M236.75,-134.65C236.75,-117.66 236.75,-95 236.75,-95 236.75,-95 430.43,-95 430.43,-95 430.43,-95 430.43,-65.22 430.43,-65.22"/>
<polygon fill="black" stroke="black" points="433.93,-65.22 430.43,-55.22 426.93,-65.22 433.93,-65.22"/>
</a>
</g>
</g>
</g>
</svg>
